<svg width="106" height="131" viewBox="0 0 106 131" fill="none" xmlns="http://www.w3.org/2000/svg">
<path d="M46.3498 91.7345C46.3498 95.0738 43.6541 97.7696 40.3148 97.7696C36.9755 97.7696 34.2275 95.0738 34.2275 91.7345C34.2275 88.3952 36.9755 85.6995 40.3148 85.6995C43.6541 85.6995 46.3498 88.3952 46.3498 91.7345Z" fill="white"/>
<path d="M67.0975 106.257C67.0975 110.587 63.6017 114.083 59.2711 114.083C54.9405 114.083 51.4447 110.587 51.4447 106.257C51.4447 101.909 54.9405 98.4303 59.2711 98.4303C63.6017 98.3781 67.0975 101.909 67.0975 106.257Z" fill="white"/>
<path d="M55.2374 64.8116C55.2374 67.2638 53.2373 69.2465 50.8024 69.2465C48.3502 69.2465 46.3675 67.2465 46.3675 64.8116C46.3675 62.3593 48.3675 60.3766 50.8024 60.3766C53.2373 60.3592 55.2374 62.3593 55.2374 64.8116Z" fill="white"/>
<path d="M69.7942 80.6904C69.7942 83.1427 67.7941 85.1253 65.3592 85.1253C62.9069 85.1253 60.9242 83.1253 60.9242 80.6904C60.9242 78.2381 62.9243 76.2554 65.3592 76.2554C67.7941 76.2554 69.7942 78.2555 69.7942 80.6904Z" fill="white"/>
<path d="M61.8302 1H67.3074C68.2117 1 68.9596 1.71308 68.9596 2.70443C68.9596 3.62621 68.2291 4.35668 67.3074 4.35668H63.8289V7.8351V46.6369C63.8289 48.2717 64.1942 50.0979 64.6985 51.7154C65.2029 53.3329 65.9508 55.0373 66.8899 56.3939L101.135 105.422C102.77 107.788 103.709 110.675 103.709 113.788V113.457C103.709 121.806 96.9435 128.571 88.5953 128.571H17.1137C8.76553 128.571 2 121.806 2 113.457V113.788C2 110.657 2.95657 107.788 4.57403 105.422L38.8191 56.3939C39.7583 55.0373 40.4887 53.3329 41.0105 51.7154C41.5149 50.0979 41.8801 48.2717 41.8801 46.6369V7.85249V4.37407H38.4017C37.4799 4.37407 36.7494 3.6436 36.7494 2.72182C36.7494 1.73047 37.5147 1.01739 38.4017 1.01739H43.8806" stroke="white" stroke-width="4"/>
</svg>
